<svg width="49" height="49" viewBox="0 0 49 49" fill="none" xmlns="http://www.w3.org/2000/svg">
<g filter="url(#filter0_dd_211_3)">
<path d="M4 20.5C4 9.17816 13.1782 0 24.5 0C35.8218 0 45 9.17816 45 20.5C45 31.8218 35.8218 41 24.5 41C13.1782 41 4 31.8218 4 20.5Z" fill="#03FF0D" fill-opacity="0.54" shape-rendering="crispEdges"/>
</g>
<path d="M20.4688 25.8438L23.8555 13.9375H25.4961L24.5469 18.5664L20.9023 31H19.2734L20.4688 25.8438ZM16.9648 13.9375L19.6602 25.6094L20.4688 31H18.8516L14.7148 13.9375H16.9648ZM29.8789 25.5977L32.5156 13.9375H34.7773L30.6523 31H29.0352L29.8789 25.5977ZM25.7422 13.9375L29.0352 25.8438L30.2305 31H28.6016L25.0859 18.5664L24.125 13.9375H25.7422Z" fill="white"/>
<defs>
<filter id="filter0_dd_211_3" x="0" y="0" width="49" height="49" filterUnits="userSpaceOnUse" color-interpolation-filters="sRGB">
<feFlood flood-opacity="0" result="BackgroundImageFix"/>
<feColorMatrix in="SourceAlpha" type="matrix" values="0 0 0 0 0 0 0 0 0 0 0 0 0 0 0 0 0 0 127 0" result="hardAlpha"/>
<feOffset dy="4"/>
<feGaussianBlur stdDeviation="2"/>
<feComposite in2="hardAlpha" operator="out"/>
<feColorMatrix type="matrix" values="0 0 0 0 0 0 0 0 0 0 0 0 0 0 0 0 0 0 0.25 0"/>
<feBlend mode="normal" in2="BackgroundImageFix" result="effect1_dropShadow_211_3"/>
<feColorMatrix in="SourceAlpha" type="matrix" values="0 0 0 0 0 0 0 0 0 0 0 0 0 0 0 0 0 0 127 0" result="hardAlpha"/>
<feOffset dy="4"/>
<feGaussianBlur stdDeviation="2"/>
<feComposite in2="hardAlpha" operator="out"/>
<feColorMatrix type="matrix" values="0 0 0 0 0 0 0 0 0 0 0 0 0 0 0 0 0 0 0.25 0"/>
<feBlend mode="normal" in2="effect1_dropShadow_211_3" result="effect2_dropShadow_211_3"/>
<feBlend mode="normal" in="SourceGraphic" in2="effect2_dropShadow_211_3" result="shape"/>
</filter>
</defs>
</svg>
